<svg width="191" height="190" viewBox="0 0 191 190" fill="none" xmlns="http://www.w3.org/2000/svg">
<mask id="mask0_54_15717" style="mask-type:alpha" maskUnits="userSpaceOnUse" x="0" y="0" width="191" height="190">
<rect width="191" height="190" fill="#D9D9D9"/>
</mask>
<g mask="url(#mask0_54_15717)">
<path d="M15.0999 106.6C8.96959 100.47 8.9696 90.5304 15.0999 84.4001L92.7024 6.79755C102.591 -3.09142 119.5 3.91237 119.5 17.8975L119.5 100.312L119.5 173.103C119.5 187.088 102.591 194.091 92.7024 184.202L15.0999 106.6Z" fill="url(#paint0_linear_54_15717)"/>
<path opacity="0.7" d="M71.616 97.5475C69.8757 89.0544 75.3499 80.7586 83.843 79.0182L162.907 62.8169C176.608 60.0095 186.863 75.1679 179.16 86.8407L145.55 137.776L116.298 182.106C108.595 193.779 90.6248 190.312 87.8174 176.612L71.616 97.5475Z" fill="url(#paint1_linear_54_15717)"/>
</g>
<defs>
<linearGradient id="paint0_linear_54_15717" x1="17.4302" y1="170.709" x2="183.965" y2="9.5466" gradientUnits="userSpaceOnUse">
<stop stop-color="#00DAFD"/>
<stop offset="1" stop-color="#ADF4FF"/>
</linearGradient>
<linearGradient id="paint1_linear_54_15717" x1="68.4648" y1="176.081" x2="205.453" y2="68.6395" gradientUnits="userSpaceOnUse">
<stop stop-color="#0C71E0"/>
<stop offset="1" stop-color="#5CAAFF"/>
</linearGradient>
</defs>
</svg>
