<svg width="16" height="20" viewBox="0 0 16 20" fill="none" xmlns="http://www.w3.org/2000/svg">
<path d="M7 18.5C7 19.0523 7.44772 19.5 8 19.5C8.55228 19.5 9 19.0523 9 18.5H7ZM8.70711 0.792893C8.31658 0.402369 7.68342 0.402369 7.29289 0.792893L0.928932 7.15685C0.538408 7.54738 0.538408 8.18054 0.928932 8.57107C1.31946 8.96159 1.95262 8.96159 2.34315 8.57107L8 2.91421L13.6569 8.57107C14.0474 8.96159 14.6805 8.96159 15.0711 8.57107C15.4616 8.18054 15.4616 7.54738 15.0711 7.15685L8.70711 0.792893ZM9 18.5V1.5H7V18.5H9Z" fill="url(#paint0_radial_54_6334)"/>
<defs>
<radialGradient id="paint0_radial_54_6334" cx="0" cy="0" r="1" gradientUnits="userSpaceOnUse" gradientTransform="translate(-2.49997 -24.4999) rotate(64.6356) scale(74.701 258.639)">
<stop offset="0.118631" stop-color="#0C71E0"/>
<stop offset="0.310306" stop-color="#0C71E0" stop-opacity="0.63"/>
<stop offset="1" stop-color="#00DAFD"/>
</radialGradient>
</defs>
</svg>
