<svg width="49" height="48" viewBox="0 0 49 48" fill="none" xmlns="http://www.w3.org/2000/svg">
<path opacity="0.7" d="M34.2402 34.1221L17.1789 34.1221C7.7564 34.1221 0.117954 26.4836 0.117953 17.0612V17.0612C0.117952 7.63867 7.7565 0.000235012 17.179 0.000234188V0.000234188C26.6016 0.000233364 34.2402 7.63877 34.2402 17.0614L34.2402 34.1221Z" fill="url(#paint0_linear_195_9370)"/>
<path opacity="0.7" d="M46.3669 17.061C47.3341 17.061 48.1182 17.8451 48.1182 18.8123V18.8123C48.1182 34.9322 35.0501 47.9999 18.9302 47.9999V47.9999C17.963 47.9999 17.1789 47.2158 17.1789 46.2486L17.1789 21.3263C17.1789 18.9707 19.0885 17.061 21.4441 17.061L46.3669 17.061Z" fill="url(#paint1_linear_195_9370)"/>
<defs>
<linearGradient id="paint0_linear_195_9370" x1="43.3659" y1="21.0288" x2="-5.04001" y2="20.2353" gradientUnits="userSpaceOnUse">
<stop stop-color="#00DAFD"/>
<stop offset="1" stop-color="#ADF4FF"/>
</linearGradient>
<linearGradient id="paint1_linear_195_9370" x1="26.924" y1="12.7181" x2="44.8362" y2="48.6022" gradientUnits="userSpaceOnUse">
<stop stop-color="#0C71E0"/>
<stop offset="1" stop-color="#5CAAFF"/>
</linearGradient>
</defs>
</svg>
