<svg width="46" height="46" viewBox="0 0 46 46" fill="none" xmlns="http://www.w3.org/2000/svg">
<path d="M0 4.05882C0 1.81719 1.8172 0 4.05882 0H13.8673C14.9499 0 15.9876 0.432463 16.7497 1.20125L24.6348 9.1549L29.9412 14.5075C30.6948 15.2676 31.1176 16.2947 31.1176 17.3651V35.1765C31.1176 37.4181 29.3004 39.2353 27.0588 39.2353H4.05882C1.81719 39.2353 0 37.4181 0 35.1765V4.05882Z" fill="url(#paint0_linear_195_9356)"/>
<path opacity="0.4" d="M10.8235 46C8.58184 46 6.76465 44.1828 6.76465 41.9412L6.76465 32.1327C6.76465 31.0501 7.19711 30.0124 7.9659 29.2503L15.9195 21.3652L21.2721 16.0588C22.0323 15.3052 23.0593 14.8824 24.1297 14.8824L41.9411 14.8824C44.1827 14.8824 45.9999 16.6995 45.9999 18.9412L45.9999 41.9412C45.9999 44.1828 44.1827 46 41.9411 46L10.8235 46Z" fill="url(#paint1_linear_195_9356)"/>
<defs>
<linearGradient id="paint0_linear_195_9356" x1="-8.32215" y1="15.0554" x2="35.8258" y2="15.6294" gradientUnits="userSpaceOnUse">
<stop stop-color="#FFDC60"/>
<stop offset="1" stop-color="#FFF0BD"/>
</linearGradient>
<linearGradient id="paint1_linear_195_9356" x1="33.6418" y1="50.368" x2="18.2115" y2="11.3926" gradientUnits="userSpaceOnUse">
<stop stop-color="#E0580C"/>
<stop offset="1" stop-color="#FFE99D"/>
</linearGradient>
</defs>
</svg>
