<svg width="235" height="32" viewBox="0 0 235 32" fill="none" xmlns="http://www.w3.org/2000/svg">
<path fill-rule="evenodd" clip-rule="evenodd" d="M0 3V25.6C0 27.3 1.4 28.6 3 28.6H7.1V7.2H19.7V0H3C1.4 0 0 1.4 0 3Z" fill="#00DAFD"/>
<path fill-rule="evenodd" clip-rule="evenodd" d="M21.4992 9V21.6H7.19922L14.3992 28.8H25.6992C27.3992 28.8 28.6992 27.4 28.6992 25.8V12.1C28.6992 10.4 27.2992 9.1 25.6992 9.1H21.5992L21.4992 9Z" fill="#0C71E0"/>
<path fill-rule="evenodd" clip-rule="evenodd" d="M28.7 7.2H21.5V0L28.7 7.2Z" fill="#00DAFD"/>
<path fill-rule="evenodd" clip-rule="evenodd" d="M12.5996 9H19.6996V16.1L12.5996 9Z" fill="#0C71E0"/>
<g clip-path="url(#clip0_1_36440)">
<path fill-rule="evenodd" clip-rule="evenodd" d="M65.4 14V15.5C65.4 18.5 64.4 21 62.4 22.9C60.4 24.8 57.8 25.8 54.6 25.8C51.4 25.8 48.4 24.7 46.2 22.5C44.1 20.2 43 17.5 43 14.3C43 11.1 44.1 8.5 46.3 6.3C48.5 4.1 51.2 3 54.5 3C57.8 3 58.4 3.5 60.1 4.4C61.8 5.3 63.1 6.6 64 8.2L60.9 10C60.3 9 59.5 8.1 58.3 7.5C57.2 6.9 55.9 6.5 54.5 6.5C52.2 6.5 50.3 7.3 48.8 8.8C47.3 10.3 46.6 12.2 46.6 14.4C46.6 16.6 47.3 18.5 48.8 20C50.3 21.5 52.2 22.2 54.7 22.2C57.2 22.2 58.2 21.7 59.4 20.8C60.6 19.9 61.4 18.7 61.7 17.2H54.4V14H65.3H65.4ZM71.8 11.6C72.8 9.8 74.3 9.4 76.6 9.4V13.1C75.3 13.1 74.2 13.3 73.2 14C72.2 14.7 71.8 15.8 71.8 17.5V25.4H68.4V9.7H71.8V11.6ZM85.8 25.7C83.5 25.7 81.6 24.9 80 23.3C78.4 21.7 77.6 19.8 77.6 17.5C77.6 15.2 78.4 13.2 80 11.7C81.6 10.1 83.6 9.3 85.8 9.3C88 9.3 90.1 10.1 91.7 11.7C93.3 13.3 94.1 15.2 94.1 17.5C94.1 19.8 93.3 21.8 91.7 23.3C90.1 24.9 88.2 25.7 85.8 25.7ZM82.3 21C83.2 21.9 84.4 22.4 85.8 22.4C87.2 22.4 88.3 21.9 89.3 21C90.3 20.1 90.7 18.9 90.7 17.5C90.7 16.1 90.2 14.9 89.3 14C88.4 13.1 87.2 12.6 85.8 12.6C84.4 12.6 83.3 13.1 82.3 14C81.4 14.9 80.9 16.1 80.9 17.5C80.9 18.9 81.4 20.1 82.3 21ZM105.3 3.4C107.3 3.4 108.9 4 110.2 5.3C111.5 6.6 112.1 8.2 112.1 10.1C112.1 12 111.5 13.6 110.2 14.9C108.9 16.2 107.3 16.8 105.3 16.8H99.5V25.1H97.8V3.4H105.2H105.3ZM105.3 15.4C106.8 15.4 108 14.9 109 13.9C110 12.9 110.5 11.7 110.5 10.2C110.5 8.7 110 7.4 109 6.4C108 5.4 106.8 4.9 105.3 4.9H99.5V15.3H105.3V15.4ZM128.4 9.7H130V25.3H128.4V21.8C127.7 23 126.8 24 125.6 24.6C124.4 25.3 123.1 25.6 121.6 25.6C119.4 25.6 117.5 24.8 115.9 23.2C114.3 21.6 113.5 19.7 113.5 17.4C113.5 15.1 114.3 13.2 115.9 11.6C117.5 10 119.4 9.2 121.6 9.2C123.8 9.2 124.4 9.5 125.6 10.2C126.8 10.9 127.7 11.8 128.4 13V9.5V9.7ZM117.1 22.2C118.4 23.5 119.9 24.1 121.8 24.1C123.7 24.1 125.2 23.5 126.5 22.2C127.8 20.9 128.4 19.3 128.4 17.5C128.4 15.7 127.8 14.1 126.5 12.8C125.2 11.5 123.7 10.9 121.8 10.9C119.9 10.9 118.4 11.5 117.1 12.8C115.8 14.1 115.2 15.7 115.2 17.5C115.2 19.3 115.8 20.9 117.1 22.2ZM146.2 9.7H147.9L141.1 26.8C140.5 28.3 139.6 29.6 138.5 30.4C137.4 31.3 136.2 31.7 134.9 31.6V30.1C135.9 30.1 136.8 29.9 137.6 29.2C138.4 28.5 139.1 27.6 139.6 26.4L139.9 25.5L132.7 9.6H134.4L140.7 23.5L146.2 9.6V9.7ZM167.4 9.4C169.1 9.4 170.5 9.9 171.5 11C172.5 12.1 173.1 13.6 173.1 15.5V25.4H171.5V15.5C171.5 14 171.1 12.9 170.4 12.1C169.6 11.3 168.6 10.9 167.4 10.9C166.2 10.9 164.9 11.4 164 12.3C163.1 13.3 162.7 14.7 162.7 16.6V25.3H161.1V15.4C161.1 13.9 160.7 12.8 160 12C159.3 11.2 158.3 10.8 157.1 10.8C155.9 10.8 154.6 11.3 153.6 12.3C152.7 13.3 152.2 14.7 152.2 16.6V25.3H150.6V9.7H152.2V12.4C153.3 10.4 155 9.4 157.2 9.4C159.4 9.4 159.3 9.7 160.2 10.2C161.1 10.8 161.7 11.5 162.1 12.6C162.6 11.5 163.4 10.7 164.3 10.2C165.2 9.7 166.2 9.4 167.3 9.4H167.4ZM184.5 9.4C186.8 9.4 188.7 10.2 190.1 11.8C191.5 13.4 192.2 15.4 192.2 17.6C192.2 19.8 192.2 17.8 192.2 18C192.2 18.2 192.2 18.3 192.2 18.4H178C178.2 20.1 178.9 21.6 180.1 22.6C181.3 23.7 182.8 24.2 184.6 24.2C186.4 24.2 186.9 23.9 187.9 23.4C188.8 22.9 189.5 22.2 190 21.3L191.4 22.1C190.8 23.2 189.8 24 188.6 24.7C187.4 25.3 186.1 25.7 184.5 25.7C182.1 25.7 180.1 24.9 178.6 23.4C177.1 21.9 176.3 19.9 176.3 17.5C176.3 15.1 177.1 13.2 178.6 11.7C180.1 10.1 182.1 9.4 184.4 9.4H184.5ZM184.5 10.9C182.7 10.9 181.3 11.5 180.1 12.6C178.9 13.7 178.2 15.1 178.1 16.9H190.7C190.5 15 189.9 13.6 188.7 12.5C187.5 11.4 186.2 10.9 184.6 10.9H184.5ZM203 9.4C204.9 9.4 206.3 10 207.4 11.1C208.5 12.2 209 13.8 209 15.6V25.3H207.4V15.6C207.4 14.1 207 13 206.2 12.1C205.4 11.2 204.3 10.8 202.8 10.8C201.3 10.8 199.9 11.3 198.9 12.4C197.9 13.5 197.4 15 197.4 17V25.3H195.8V9.7H197.4V12.7C198.5 10.5 200.4 9.4 203 9.4ZM221.5 11.3H216.8V21.5C216.8 22.4 217 23 217.3 23.4C217.6 23.8 218.1 24 218.8 24.1C219.5 24.1 220.4 24.1 221.4 24.1V25.5C219.3 25.8 217.7 25.7 216.7 25.1C215.7 24.5 215.2 23.3 215.2 21.6V11.4H211.8V9.9H215.2V6L216.8 5.5V9.9H221.5V11.4V11.3ZM225.4 13.8C225.4 14.6 225.7 15.1 226.4 15.6C227.1 16 227.8 16.4 228.8 16.6C229.7 16.8 230.7 17.1 231.6 17.3C232.5 17.5 233.3 18 234 18.6C234.7 19.2 235 20.1 235 21.2C235 22.3 234.5 23.6 233.5 24.4C232.5 25.2 231.1 25.6 229.5 25.6C227.9 25.6 226.7 25.3 225.7 24.6C224.7 24 224 23.1 223.6 22.1L224.9 21.3C225.2 22.2 225.7 22.8 226.5 23.3C227.3 23.8 228.3 24 229.5 24C230.7 24 231.6 23.7 232.4 23.2C233.2 22.7 233.5 22 233.5 21C233.5 20 233.2 19.6 232.5 19.2C231.9 18.7 231.1 18.4 230.1 18.1C229.2 17.9 228.2 17.6 227.3 17.4C226.4 17.2 225.6 16.7 224.9 16.1C224.3 15.5 223.9 14.6 223.9 13.6C223.9 12.6 224.4 11.3 225.4 10.4C226.4 9.5 227.7 9.1 229.2 9.1C230.7 9.1 231.5 9.4 232.5 9.9C233.4 10.5 234.1 11.2 234.5 12.2L233.2 13C232.9 12.2 232.4 11.6 231.6 11.2C230.9 10.8 230.1 10.6 229.2 10.6C228.3 10.6 227.2 10.9 226.5 11.4C225.8 11.9 225.4 12.6 225.4 13.5V13.8Z" fill="#00152F"/>
</g>
<defs>
<clipPath id="clip0_1_36440">
<rect width="191.9" height="28.6" fill="white" transform="translate(43 3)"/>
</clipPath>
</defs>
</svg>
