<svg width="192" height="29" viewBox="0 0 192 29" fill="none" xmlns="http://www.w3.org/2000/svg">
<path fill-rule="evenodd" clip-rule="evenodd" d="M22.4 11V12.5C22.4 15.5 21.4 18 19.4 19.9C17.4 21.8 14.8 22.8 11.6 22.8C8.4 22.8 5.4 21.7 3.2 19.5C1.1 17.2 0 14.5 0 11.3C0 8.1 1.1 5.5 3.3 3.3C5.5 1.1 8.2 0 11.5 0C14.8 0 15.4 0.5 17.1 1.4C18.8 2.3 20.1 3.6 21 5.2L17.9 7C17.3 6 16.5 5.1 15.3 4.5C14.2 3.9 12.9 3.5 11.5 3.5C9.2 3.5 7.3 4.3 5.8 5.8C4.3 7.3 3.6 9.2 3.6 11.4C3.6 13.6 4.3 15.5 5.8 17C7.3 18.5 9.2 19.2 11.7 19.2C14.2 19.2 15.2 18.7 16.4 17.8C17.6 16.9 18.4 15.7 18.7 14.2H11.4V11H22.3H22.4ZM28.8 8.6C29.8 6.8 31.3 6.4 33.6 6.4V10.1C32.3 10.1 31.2 10.3 30.2 11C29.2 11.7 28.8 12.8 28.8 14.5V22.4H25.4V6.7H28.8V8.6ZM42.8 22.7C40.5 22.7 38.6 21.9 37 20.3C35.4 18.7 34.6 16.8 34.6 14.5C34.6 12.2 35.4 10.2 37 8.7C38.6 7.1 40.6 6.3 42.8 6.3C45 6.3 47.1 7.1 48.7 8.7C50.3 10.3 51.1 12.2 51.1 14.5C51.1 16.8 50.3 18.8 48.7 20.3C47.1 21.9 45.2 22.7 42.8 22.7ZM39.3 18C40.2 18.9 41.4 19.4 42.8 19.4C44.2 19.4 45.3 18.9 46.3 18C47.3 17.1 47.7 15.9 47.7 14.5C47.7 13.1 47.2 11.9 46.3 11C45.4 10.1 44.2 9.6 42.8 9.6C41.4 9.6 40.3 10.1 39.3 11C38.4 11.9 37.9 13.1 37.9 14.5C37.9 15.9 38.4 17.1 39.3 18ZM62.3 0.4C64.3 0.4 65.9 1 67.2 2.3C68.5 3.6 69.1 5.2 69.1 7.1C69.1 9 68.5 10.6 67.2 11.9C65.9 13.2 64.3 13.8 62.3 13.8H56.5V22.1H54.8V0.4H62.2H62.3ZM62.3 12.4C63.8 12.4 65 11.9 66 10.9C67 9.9 67.5 8.7 67.5 7.2C67.5 5.7 67 4.4 66 3.4C65 2.4 63.8 1.9 62.3 1.9H56.5V12.3H62.3V12.4ZM85.4 6.7H87V22.3H85.4V18.8C84.7 20 83.8 21 82.6 21.6C81.4 22.3 80.1 22.6 78.6 22.6C76.4 22.6 74.5 21.8 72.9 20.2C71.3 18.6 70.5 16.7 70.5 14.4C70.5 12.1 71.3 10.2 72.9 8.6C74.5 7 76.4 6.2 78.6 6.2C80.8 6.2 81.4 6.5 82.6 7.2C83.8 7.9 84.7 8.8 85.4 10V6.5V6.7ZM74.1 19.2C75.4 20.5 76.9 21.1 78.8 21.1C80.7 21.1 82.2 20.5 83.5 19.2C84.8 17.9 85.4 16.3 85.4 14.5C85.4 12.7 84.8 11.1 83.5 9.8C82.2 8.5 80.7 7.9 78.8 7.9C76.9 7.9 75.4 8.5 74.1 9.8C72.8 11.1 72.2 12.7 72.2 14.5C72.2 16.3 72.8 17.9 74.1 19.2ZM103.2 6.7H104.9L98.1 23.8C97.5 25.3 96.6 26.6 95.5 27.4C94.4 28.3 93.2 28.7 91.9 28.6V27.1C92.9 27.1 93.8 26.9 94.6 26.2C95.4 25.5 96.1 24.6 96.6 23.4L96.9 22.5L89.7 6.6H91.4L97.7 20.5L103.2 6.6V6.7ZM124.4 6.4C126.1 6.4 127.5 6.9 128.5 8C129.5 9.1 130.1 10.6 130.1 12.5V22.4H128.5V12.5C128.5 11 128.1 9.9 127.4 9.1C126.6 8.3 125.6 7.9 124.4 7.9C123.2 7.9 121.9 8.4 121 9.3C120.1 10.3 119.7 11.7 119.7 13.6V22.3H118.1V12.4C118.1 10.9 117.7 9.8 117 9C116.3 8.2 115.3 7.8 114.1 7.8C112.9 7.8 111.6 8.3 110.6 9.3C109.7 10.3 109.2 11.7 109.2 13.6V22.3H107.6V6.7H109.2V9.4C110.3 7.4 112 6.4 114.2 6.4C116.4 6.4 116.3 6.7 117.2 7.2C118.1 7.8 118.7 8.5 119.1 9.6C119.6 8.5 120.4 7.7 121.3 7.2C122.2 6.7 123.2 6.4 124.3 6.4H124.4ZM141.5 6.4C143.8 6.4 145.7 7.2 147.1 8.8C148.5 10.4 149.2 12.4 149.2 14.6C149.2 16.8 149.2 14.8 149.2 15C149.2 15.2 149.2 15.3 149.2 15.4H135C135.2 17.1 135.9 18.6 137.1 19.6C138.3 20.7 139.8 21.2 141.6 21.2C143.4 21.2 143.9 20.9 144.9 20.4C145.8 19.9 146.5 19.2 147 18.3L148.4 19.1C147.8 20.2 146.8 21 145.6 21.7C144.4 22.3 143.1 22.7 141.5 22.7C139.1 22.7 137.1 21.9 135.6 20.4C134.1 18.9 133.3 16.9 133.3 14.5C133.3 12.1 134.1 10.2 135.6 8.7C137.1 7.1 139.1 6.4 141.4 6.4H141.5ZM141.5 7.9C139.7 7.9 138.3 8.5 137.1 9.6C135.9 10.7 135.2 12.1 135.1 13.9H147.7C147.5 12 146.9 10.6 145.7 9.5C144.5 8.4 143.2 7.9 141.6 7.9H141.5ZM160 6.4C161.9 6.4 163.3 7 164.4 8.1C165.5 9.2 166 10.8 166 12.6V22.3H164.4V12.6C164.4 11.1 164 10 163.2 9.1C162.4 8.2 161.3 7.8 159.8 7.8C158.3 7.8 156.9 8.3 155.9 9.4C154.9 10.5 154.4 12 154.4 14V22.3H152.8V6.7H154.4V9.7C155.5 7.5 157.4 6.4 160 6.4ZM178.5 8.3H173.8V18.5C173.8 19.4 174 20 174.3 20.4C174.6 20.8 175.1 21 175.8 21.1C176.5 21.1 177.4 21.1 178.4 21.1V22.5C176.3 22.8 174.7 22.7 173.7 22.1C172.7 21.5 172.2 20.3 172.2 18.6V8.4H168.8V6.9H172.2V3L173.8 2.5V6.9H178.5V8.4V8.3ZM182.4 10.8C182.4 11.6 182.7 12.1 183.4 12.6C184.1 13 184.8 13.4 185.8 13.6C186.7 13.8 187.7 14.1 188.6 14.3C189.5 14.5 190.3 15 191 15.6C191.7 16.2 192 17.1 192 18.2C192 19.3 191.5 20.6 190.5 21.4C189.5 22.2 188.1 22.6 186.5 22.6C184.9 22.6 183.7 22.3 182.7 21.6C181.7 21 181 20.1 180.6 19.1L181.9 18.3C182.2 19.2 182.7 19.8 183.5 20.3C184.3 20.8 185.3 21 186.5 21C187.7 21 188.6 20.7 189.4 20.2C190.2 19.7 190.5 19 190.5 18C190.5 17 190.2 16.6 189.5 16.2C188.9 15.7 188.1 15.4 187.1 15.1C186.2 14.9 185.2 14.6 184.3 14.4C183.4 14.2 182.6 13.7 181.9 13.1C181.3 12.5 180.9 11.6 180.9 10.6C180.9 9.6 181.4 8.3 182.4 7.4C183.4 6.5 184.7 6.1 186.2 6.1C187.7 6.1 188.5 6.4 189.5 6.9C190.4 7.5 191.1 8.2 191.5 9.2L190.2 10C189.9 9.2 189.4 8.6 188.6 8.2C187.9 7.8 187.1 7.6 186.2 7.6C185.3 7.6 184.2 7.9 183.5 8.4C182.8 8.9 182.4 9.6 182.4 10.5V10.8Z" fill="white"/>
</svg>
